<svg width="40" height="40" viewBox="0 0 40 40" fill="none" xmlns="http://www.w3.org/2000/svg">
<path d="M14.9276 37.3692V31.3745C14.0053 31.5282 13.3905 31.5282 13.083 31.5282C11.2385 31.5282 9.85511 30.606 9.08656 28.9152C8.77914 28.3003 8.47172 27.6855 8.1643 27.2243C8.01059 27.0706 7.85688 26.9169 7.54945 26.7632C7.24203 26.4558 7.08832 26.3021 6.7809 26.1484C6.47348 25.9947 6.47348 25.8409 6.47348 25.6872C6.47348 25.5335 6.7809 25.3798 7.24203 25.3798C8.31801 25.3798 9.08656 25.9946 9.54769 26.6095C10.0088 27.378 10.6237 28.1466 11.3922 28.6077C11.8534 28.9152 12.3145 29.0689 12.7756 29.0689C13.5442 29.0689 14.159 28.9152 14.9276 28.7614C15.235 27.8392 15.6961 26.9169 16.6184 26.4558C10.9311 25.8409 8.1643 23.8427 8.1643 18.4628C8.1643 16.4646 8.77914 14.6201 10.0088 13.2367C9.7014 12.4681 9.7014 11.8533 9.7014 11.0847C9.7014 10.0087 10.0088 9.08649 10.47 8.31793C12.4682 8.31793 13.6979 8.93278 15.6961 10.4699C17.0795 10.1625 18.4629 10.0087 20.1537 10.0087C21.5371 10.0087 22.9205 10.1625 24.1502 10.4699C26.1484 9.08649 27.3781 8.47164 29.3764 8.47164C29.8375 9.39391 30.1449 10.3162 30.1449 11.2384C30.1449 12.007 29.9912 12.6218 29.8375 13.3904C31.0672 14.7738 31.682 16.4646 31.682 18.6165C31.682 23.9964 28.9152 26.1484 23.2279 26.6095C24.4576 27.378 25.0725 28.6077 25.0725 29.9911V37.3692H14.9276Z" fill="white"/>
<path d="M17.3869 0.171333C8.4717 1.24731 1.24731 8.4717 0.171333 17.3869C-1.51948 30.4523 9.54768 41.5195 22.6131 39.8287C31.5283 38.7527 38.7527 31.5283 39.8287 22.6131C41.5195 9.54768 30.4523 -1.51948 17.3869 0.171333ZM36.6007 22.9205C35.5248 29.9912 29.8375 35.5248 22.7668 36.7545C11.2385 38.599 1.40102 28.7615 3.24555 17.2332C4.32152 10.1625 10.0088 4.62894 17.0795 3.39926C28.7615 1.40102 38.599 11.2385 36.6007 22.9205Z" fill="white"/>
</svg>
