<svg width="200" height="57" viewBox="0 0 200 57" fill="none" xmlns="http://www.w3.org/2000/svg">
<path d="M199.042 25.9381C197.104 41.7551 188.161 56.1983 154.572 56.1983C120.983 56.1983 115.469 45.4466 118.886 29.8728C126.26 -3.73478 141.933 0.13565 171.44 0.13565C199.042 0.13565 202.109 0.903637 199.042 25.9381Z" fill="url(#paint0_linear_1_13)"/>
<path d="M5.66764 38.5348H0L2.13456 13.689H8.35424C11.323 21.4303 12.9914 25.8662 13.3594 26.9966C13.752 28.1271 14.0709 29.1961 14.3163 30.2037C14.7089 28.5818 15.5676 26.0751 16.8925 22.6836L20.3888 13.689H26.6084L29.1846 38.5348H23.517L22.5969 28.9135L22.1185 21.6515C21.6033 23.1506 19.5546 28.6923 15.9724 38.2768H12.6234C9.23751 29.1347 7.28696 23.5929 6.77172 21.6515C6.77172 23.3963 6.66131 25.817 6.44049 28.9135L5.66764 38.5348Z" fill="white"/>
<path d="M38.7747 25.3009C38.1858 26.3085 37.8914 27.611 37.8914 29.2084C37.8914 30.8058 38.1858 32.1206 38.7747 33.1528C39.388 34.1604 40.2836 34.6642 41.4613 34.6642C42.6635 34.6642 43.5467 34.1727 44.1111 33.1896C44.6999 32.1821 44.9943 30.8796 44.9943 29.2822C44.9943 25.6204 43.8044 23.7895 41.4245 23.7895C40.2468 23.7895 39.3635 24.2933 38.7747 25.3009ZM41.5349 19.5503C44.3809 19.5503 46.6014 20.4473 48.1962 22.2413C49.791 24.0353 50.5884 26.3331 50.5884 29.1347C50.5884 31.9363 49.7787 34.2587 48.1594 36.1018C46.5646 37.9204 44.3196 38.8297 41.4245 38.8297C38.5293 38.8297 36.2843 37.9573 34.6895 36.2124C33.0947 34.443 32.2974 32.1575 32.2974 29.3559C32.2974 26.5297 33.1315 24.195 34.7999 22.3519C36.4683 20.4841 38.7133 19.5503 41.5349 19.5503Z" fill="white"/>
<path d="M63.6306 24.0844C62.502 24.0844 61.5206 24.5145 60.6864 25.3747C59.8768 26.2348 59.4719 27.4513 59.4719 29.0241C59.4719 30.5969 59.8522 31.8626 60.6128 32.821C61.3734 33.7795 62.3425 34.2587 63.5202 34.2587C64.6979 34.2587 65.6793 33.804 66.4645 32.8947C67.2496 31.9609 67.6422 30.7198 67.6422 29.1716C67.6422 27.5987 67.2496 26.3577 66.4645 25.4484C65.7039 24.5391 64.7593 24.0844 63.6306 24.0844ZM59.4719 38.5348H54.0987V12.4726H59.4719V22.7205C60.7478 20.6562 62.5756 19.624 64.9555 19.624C67.3355 19.624 69.286 20.4719 70.8072 22.1676C72.3284 23.8633 73.089 26.1119 73.089 28.9135C73.089 31.6905 72.3529 34.0252 70.8808 35.9175C69.4332 37.8098 67.4827 38.756 65.0292 38.756C62.5756 38.756 60.7232 37.7115 59.4719 35.6226V38.5348Z" fill="white"/>
<path d="M81.6761 12.2145C82.2895 12.8289 82.5962 13.5662 82.5962 14.4263C82.5962 15.2864 82.2895 16.0237 81.6761 16.6381C81.0627 17.2525 80.3267 17.5597 79.4679 17.5597C78.6092 17.5597 77.8731 17.2525 77.2598 16.6381C76.6464 16.0237 76.3397 15.2864 76.3397 14.4263C76.3397 13.5662 76.6464 12.8289 77.2598 12.2145C77.8731 11.6001 78.6092 11.2929 79.4679 11.2929C80.3267 11.2929 81.0627 11.6001 81.6761 12.2145ZM82.1545 38.5348H76.7813V19.8452H82.1545V38.5348Z" fill="white"/>
<path d="M92.3256 38.5348H86.9524V12.4726H92.3256V38.5348Z" fill="white"/>
<path d="M104.852 23.7527C103.993 23.7527 103.233 24.0722 102.57 24.7111C101.908 25.3255 101.466 26.2471 101.245 27.4759H107.723V27.0335C107.551 24.8463 106.594 23.7527 104.852 23.7527ZM111.587 37.4658C110.311 38.3013 108.25 38.7191 105.404 38.7191C102.558 38.7191 100.276 37.8344 98.5588 36.065C96.8659 34.271 96.0194 31.9363 96.0194 29.061C96.0194 26.1611 96.8414 23.8756 98.4852 22.2044C100.154 20.5087 102.215 19.6609 104.668 19.6609C107.146 19.6609 109.109 20.3981 110.557 21.8727C112.004 23.3226 112.728 25.4975 112.728 28.3974C112.728 28.9627 112.63 29.9334 112.433 31.3096H101.466C101.834 32.3418 102.472 33.1405 103.38 33.7057C104.288 34.271 105.38 34.5536 106.655 34.5536C108.545 34.5536 110.189 34.0252 111.587 32.9685V37.4658Z" fill="white"/>
<path d="M130.327 38.5348H124.402L132.683 13.689H139.822L148.103 38.5348H142.03L140.522 33.4477H131.836L130.327 38.5348ZM136.179 17.8177C136.032 18.899 135.038 22.5853 133.198 28.8767H139.16C137.516 23.2489 136.522 19.5626 136.179 17.8177Z" fill="white"/>
<path d="M160.742 24.0844C159.613 24.0844 158.632 24.5145 157.798 25.3747C156.964 26.2348 156.547 27.4513 156.547 29.0241C156.547 30.5969 156.939 31.8626 157.724 32.821C158.509 33.7795 159.503 34.2587 160.705 34.2587C161.908 34.2587 162.877 33.8163 163.613 32.9316C164.349 32.0223 164.717 30.7567 164.717 29.1347C164.717 27.5127 164.336 26.2717 163.576 25.4115C162.84 24.5268 161.895 24.0844 160.742 24.0844ZM156.547 45.4282H151.173V19.8452H156.547V22.7205C157.847 20.6562 159.712 19.624 162.141 19.624C164.57 19.624 166.508 20.4841 167.955 22.2044C169.428 23.9001 170.164 26.1734 170.164 29.0241C170.164 31.8749 169.452 34.2095 168.029 36.0281C166.631 37.8467 164.668 38.756 162.141 38.756C159.638 38.756 157.773 37.7607 156.547 35.7701V45.4282Z" fill="white"/>
<path d="M183.241 24.0844C182.112 24.0844 181.131 24.5145 180.296 25.3747C179.462 26.2348 179.045 27.4513 179.045 29.0241C179.045 30.5969 179.438 31.8626 180.223 32.821C181.008 33.7795 182.002 34.2587 183.204 34.2587C184.406 34.2587 185.375 33.8163 186.111 32.9316C186.847 32.0223 187.215 30.7567 187.215 29.1347C187.215 27.5127 186.835 26.2717 186.075 25.4115C185.338 24.5268 184.394 24.0844 183.241 24.0844ZM179.045 45.4282H173.672V19.8452H179.045V22.7205C180.346 20.6562 182.21 19.624 184.639 19.624C187.068 19.624 189.006 20.4841 190.454 22.2044C191.926 23.9001 192.662 26.1734 192.662 29.0241C192.662 31.8749 191.951 34.2095 190.528 36.0281C189.129 37.8467 187.166 38.756 184.639 38.756C182.137 38.756 180.272 37.7607 179.045 35.7701V45.4282Z" fill="white"/>
<defs>
<linearGradient id="paint0_linear_1_13" x1="98.5378" y1="-2.93617" x2="80.5014" y2="67.9419" gradientUnits="userSpaceOnUse">
<stop stop-color="#4D008A"/>
<stop offset="1" stop-color="#BE00B7"/>
</linearGradient>
</defs>
</svg>
