<svg width="21" height="21" viewBox="0 0 21 21" fill="none" xmlns="http://www.w3.org/2000/svg">
<g clip-path="url(#clip0_1_18)">
<path d="M20.775 15.9257C19.9933 14.4479 17.2786 12.8455 17.1591 12.7755C16.8103 12.5769 16.4463 12.4718 16.1057 12.4718C15.5992 12.4718 15.1846 12.7038 14.9335 13.1258C14.5364 13.6008 14.0439 14.1559 13.9244 14.242C12.9994 14.8695 12.2753 14.7983 11.4741 13.9971L7.0025 9.52514C6.20636 8.72901 6.13317 7.99595 6.75645 7.07601C6.84366 6.95572 7.39881 6.46285 7.87377 6.06537C8.17665 5.88512 8.38454 5.61728 8.47563 5.2887C8.59671 4.85151 8.50756 4.33724 8.22181 3.8362C8.15446 3.72097 6.55129 1.00594 5.07426 0.224599C4.79863 0.0786087 4.48796 0.00152588 4.17652 0.00152588C3.66341 0.00152588 3.18067 0.20163 2.81784 0.564075L1.82977 1.55175C0.267096 3.11404 -0.298567 4.88499 0.147579 6.81518C0.519757 8.42379 1.60437 10.1356 3.37182 11.9026L9.09658 17.6274C11.3335 19.8644 13.4662 20.9988 15.4353 20.9988C15.4353 20.9988 15.4353 20.9988 15.4357 20.9988C16.8839 20.9988 18.234 20.3833 19.4475 19.1698L20.4351 18.1822C21.0355 17.5822 21.1717 16.6752 20.775 15.9257Z" fill="white"/>
</g>
<defs>
<clipPath id="clip0_1_18">
<rect width="21" height="21" fill="white"/>
</clipPath>
</defs>
</svg>
