<svg width="31" height="31" viewBox="0 0 31 31" fill="none" xmlns="http://www.w3.org/2000/svg">
<g clip-path="url(#clip0_51_53)">
<path d="M30.2093 23.6292C29.1294 24.3057 24.736 24.507 23.6727 23.7343C23.0894 23.3108 22.556 22.7804 22.0492 22.2761C21.6953 21.9231 21.2927 21.7517 20.9884 21.3688C20.7406 21.0551 20.5701 20.6855 20.3081 20.3769C19.8666 19.8576 19.1862 19.4162 18.6478 20.0504C17.8379 21.0038 18.7755 22.8783 17.6952 23.5911C17.3327 23.8305 16.9673 23.8997 16.5148 23.8655L15.5122 23.9112C14.9228 23.9228 13.9899 23.9279 13.3202 23.8069C12.5723 23.6723 11.9556 23.2638 11.2804 22.9638C9.9974 22.3949 8.77471 21.6197 7.84475 20.5457C5.31388 17.6212 1.91417 13.5988 0.593604 9.92177C0.321371 9.16619 -0.395324 7.67083 0.284618 7.02251C1.20944 6.35069 5.75022 6.16051 6.45794 7.2003C6.74599 7.62211 6.92719 8.24136 7.13062 8.71959C7.38362 9.31619 7.52124 9.87904 7.91698 10.4073C8.26742 10.8761 8.5264 11.347 8.79778 11.8612C9.1025 12.4377 9.38969 12.9907 9.76021 13.5219C10.0115 13.883 10.6761 14.6006 11.0957 14.6544C12.1206 14.7856 12.0565 12.2949 11.9804 11.6864C11.9077 11.1005 11.8885 10.4791 11.9077 9.88459C11.9244 9.37773 11.9701 8.6636 11.6697 8.24948C11.1804 7.57424 10.0906 8.07982 10.0051 7.17252C10.1854 6.91481 10.147 6.68617 11.3496 6.29043C12.2962 5.97888 12.9078 5.98871 13.5322 6.03871C14.8057 6.14085 16.1558 5.79597 17.3845 6.2088C18.558 6.60412 18.3768 8.27213 18.3375 9.27217C18.2849 10.6376 18.3409 11.9697 18.3375 13.3548C18.3358 13.986 18.311 14.5993 19.0794 14.5485C19.8008 14.5002 19.8739 13.8937 20.2179 13.3929C20.697 12.695 21.1359 11.9877 21.6235 11.2919C22.2804 10.3521 22.4783 9.29611 23.0967 8.33325C23.318 7.98836 23.5082 7.23577 23.8488 6.96353C24.107 6.75797 24.5967 6.84601 24.9087 6.84601H25.6506C26.219 6.85285 26.7985 6.86097 27.3819 6.88148C28.2225 6.91054 29.164 6.72805 29.9978 6.84558C33.5945 7.35329 25.4771 15.0472 25.8993 16.4199C26.1916 17.3678 28.043 18.4298 28.7114 19.2068C29.6025 20.2401 32.3338 22.2996 30.2093 23.6292Z" fill="white"/>
</g>
<defs>
<clipPath id="clip0_51_53">
<rect width="31" height="31" fill="white"/>
</clipPath>
</defs>
</svg>
